<?xml version="1.0" standalone="no"?>
<svg viewBox="0 0 200 200" xmlns="http://www.w3.org/2000/svg">
  <path fill="#0F62FE" d="M38,-60.7C51.6,-58,66.5,-52.5,74.7,-41.9C82.8,-31.4,84.2,-15.7,80.2,-2.3C76.2,11.1,66.9,22.1,60.3,35.6C53.8,49,50.2,64.8,40.6,75C31,85.2,15.5,89.8,1.3,87.6C-13,85.4,-25.9,76.4,-39.1,68.3C-52.4,60.2,-65.9,53,-70.8,41.8C-75.7,30.5,-72.1,15.3,-69.9,1.2C-67.8,-12.8,-67.1,-25.6,-61.1,-34.9C-55,-44.2,-43.7,-50.1,-32.6,-54.3C-21.6,-58.4,-10.8,-60.9,0.7,-62.1C12.2,-63.4,24.4,-63.4,38,-60.7Z" transform="translate(100 100)" />
</svg>
