<svg id="Layer_1" data-name="Layer 1" xmlns="http://www.w3.org/2000/svg" viewBox="0 0 344.82 464.62"><defs><style>.cls-1,.cls-2{fill:#235b93;}.cls-2{font-size:42.84px;font-family:AraHamah1964B-Bold, Ara Hamah 1964 B;font-weight:700;}.cls-3{fill:#2867b2;}</style></defs><title>Logo-Awn-Final</title><path class="cls-1" d="M337,471.75a1.56,1.56,0,0,1,1.54,1.15l5.77,18.85h-4.51l-1.43-5.26h-6.89L330,491.75h-4.52l5.78-18.85a1.55,1.55,0,0,1,1.54-1.15Zm-2.46,3.32A19.1,19.1,0,0,1,334,477l-1.65,6.14h5L335.66,477a14.59,14.59,0,0,1-.4-1.88Z" transform="translate(-248.53 -41.27)"/><path class="cls-1" d="M377.22,490.61a1.47,1.47,0,0,1-1.48,1.14h-3.37a1.55,1.55,0,0,1-1.55-1.31l-1.43-8.09c-.14-.8-.17-1.6-.34-2.4h-.34l-.34,2.4-1.43,8.09a1.52,1.52,0,0,1-1.54,1.31h-3.32a1.45,1.45,0,0,1-1.48-1.14l-3.52-13.14h4.32l1.94,9.25a13.89,13.89,0,0,1,.37,2.37h.37c.12-.8.23-1.57.37-2.37l1.46-8a1.42,1.42,0,0,1,1.48-1.25h3a1.47,1.47,0,0,1,1.52,1.28l1.43,8c.14.8.28,1.57.4,2.37h.34c.11-.8.17-1.54.34-2.37l2-9.25h4.32Z" transform="translate(-248.53 -41.27)"/><path class="cls-1" d="M409.21,481v10.74H405v-9.4c0-1.31-.34-1.68-1.4-1.68a9.39,9.39,0,0,0-4,1.31v9.77H395.3V477.47h3.48l.32,2.11a9.87,9.87,0,0,1,6.11-2.54C407.81,477,409.21,478.44,409.21,481Z" transform="translate(-248.53 -41.27)"/><path class="cls-1" d="M453.31,492.06a5.51,5.51,0,0,1-1.74,4.17,8.32,8.32,0,0,1-4.15,2.15,12.58,12.58,0,0,1-5,.11,8.86,8.86,0,0,1-4.17-1.71c-1.11-.92-1.65-2.49-1.65-4.72v-9.88h3.71v9.88a2.91,2.91,0,0,0,.74,2.26c1.17,1,2.86,1.34,5,1s3.49-1.46,3.49-3.26V477.87h3.71Zm-10.74-14.82v-3.06h3.83v3.06Z" transform="translate(-248.53 -41.27)"/><path class="cls-1" d="M483.58,491.75h-2v1.77c0,2-.43,3.34-1.32,4.06s-4.68,1.65-7.26,1.65l-1.68-3.4c.94,0,5.23-.22,5.77-.68a2.54,2.54,0,0,0,.8-2.06v-1.31h-4.2a6,6,0,0,1-3.83-.95C466.36,488,467.22,478,474.56,478h7v10h2Zm-8.85-10.48c-4.43,0-4.46,6.77-1.4,6.77h4.57v-6.77Z" transform="translate(-248.53 -41.27)"/><path class="cls-1" d="M482.44,491.75V488h9.37v3.71Z" transform="translate(-248.53 -41.27)"/><path class="cls-1" d="M490.09,491.75V488h9.37v3.71Z" transform="translate(-248.53 -41.27)"/><path class="cls-1" d="M497.75,491.75V488h9.37v3.71Z" transform="translate(-248.53 -41.27)"/><path class="cls-1" d="M513.66,481.27c-1.74,0-2.63.91-2.63,2.74v1.43a3,3,0,0,0,.54,2.08,3.11,3.11,0,0,0,2.15.52h6.65v3.71h-15V488h2a9.5,9.5,0,0,1-.14-1.55v-3a5.77,5.77,0,0,1,1.29-4.08A4.54,4.54,0,0,1,512,478h6.83v3.23Z" transform="translate(-248.53 -41.27)"/><text class="cls-2" transform="translate(167.21 452.22)">-</text><path class="cls-3" d="M322.58,164.72,397,90.3l-49-49-78.53,78.52C255,134.25,248.16,151.63,248.55,172c-.39,19.53,6.84,36.92,21.49,51.57l43,43C291.91,234.46,285.86,196.76,322.58,164.72Z" transform="translate(-248.53 -41.27)"/><path class="cls-3" d="M510.32,308.7a19.63,19.63,0,0,0-27.77,0l-49.8,49.8a28.66,28.66,0,0,1-2.18,2c-27.35,23.44-67.1,31.39-101.86,25.53,3.51,5.08,10.28,16.64,14.38,20.74,19.34,19.34,42.2,28.13,69.54,28.52,26.76.19,49.82-9.18,68.76-28.13l49.8-49.8a19.63,19.63,0,0,0,0-27.77Z" transform="translate(-248.53 -41.27)"/><rect class="cls-3" x="514.22" y="256.01" width="72.41" height="66.25" rx="14.71" ry="14.71" transform="translate(-291.77 432.63) rotate(-45)"/><path class="cls-1" d="M406.06,363.32c-12.75-1.9-22.56-12.6-22.34-25.48v-.24c-.39-7.82,2.74-14.46,8.21-19.93L512.06,197.54,463.23,148.7l-85.56,85.56-52.49-52.48-8.67-8.67s-41.8,34.32-.5,96.15l3.53,3.68.11.19,10.94,10.94c-14.06,21.49-18.21,61.47-3.56,96.82l1.68,4.25C402,395,438.08,351.9,438.08,351.9,426.58,363,414.48,364.57,406.06,363.32Z" transform="translate(-248.53 -41.27)"/></svg>