<svg xmlns="http://www.w3.org/2000/svg" width="488.552" height="460.836" viewBox="0 0 488.552 460.836">
  <g id="Path_4" data-name="Path 4" transform="matrix(0.105, -0.995, 0.995, 0.105, 183.013, 564.05)" fill="rgba(255,255,255,0.49)" opacity="0.34">
    <path d="M 143.9380950927734 249.294921875 C 141.7555847167969 249.294921875 139.8236541748047 249.0025482177734 138.1958465576172 248.4259796142578 C 136.5390319824219 247.8390502929688 135.1383972167969 246.935791015625 134.0327758789063 245.7412872314453 C 132.89208984375 244.5089874267578 132.0204620361328 242.9190521240234 131.4421539306641 241.0157318115234 C 130.8419036865234 239.0403594970703 130.5375366210938 236.6640472412109 130.5375366210938 233.9528503417969 C 130.5375366210938 217.8714752197266 133.2690277099609 193.7684173583984 138.2288970947266 166.0837249755859 C 143.57958984375 136.2176666259766 151.1609649658203 103.9498596191406 160.1534729003906 72.76873016357422 C 165.0597839355469 55.75635528564453 170.3600921630859 39.16779327392578 175.9072113037109 23.46379470825195 C 181.8502807617188 6.638856887817383 188.126708984375 -9.307704925537109 194.5621490478516 -23.93289375305176 C 208.9021606445313 -56.52201843261719 224.0810241699219 -82.77870178222656 239.6771545410156 -101.973518371582 C 252.2890930175781 -117.4955825805664 269.998291015625 -131.8328857421875 292.3127746582031 -144.5871429443359 C 312.1692199707031 -155.9365234375 335.4176025390625 -165.9155120849609 361.4120178222656 -174.2470245361328 C 373.2031555175781 -178.0261383056641 385.5234680175781 -181.4449615478516 398.0307922363281 -184.4083862304688 C 409.8748474121094 -187.2146453857422 421.9223327636719 -189.6222686767578 433.8385925292969 -191.5643310546875 C 456.4154663085938 -195.2437744140625 478.0646057128906 -197.1885833740234 496.4456481933594 -197.1885833740234 C 505.1039123535156 -197.1885833740234 512.8319091796875 -196.7542114257813 519.4149169921875 -195.8973999023438 C 526.0488891601563 -195.0340118408203 531.4169921875 -193.7551422119141 535.3701782226563 -192.0963287353516 C 541.8380737304688 -189.38232421875 545.4602661132813 -178.4402618408203 545.84521484375 -160.4532012939453 C 546.2138061523438 -143.2330780029297 543.6239013671875 -120.2981414794922 538.355712890625 -94.12789154052734 C 533.158203125 -68.30889129638672 525.583251953125 -40.56970596313477 516.4497680664063 -13.90914249420166 C 511.6567687988281 0.08154461532831192 506.4607238769531 13.69979476928711 501.0059814453125 26.56716918945313 C 495.2796020507813 40.07529449462891 489.2399597167969 52.81904602050781 483.0548400878906 64.44441986083984 C 476.5275268554688 76.71298217773438 469.7683410644531 87.86435699462891 462.9651489257813 97.58879089355469 C 455.7723388671875 107.8700408935547 448.4207153320313 116.7106094360352 441.1145324707031 123.8649215698242 C 433.3963317871094 131.422607421875 425.5859680175781 137.2366027832031 417.900390625 141.1454162597656 C 413.9061584472656 143.1768646240234 409.8722839355469 144.7293548583984 405.9107055664063 145.7598571777344 C 401.8447265625 146.8174896240234 397.7449645996094 147.3537292480469 393.7252197265625 147.3537292480469 C 345.331787109375 147.3537292480469 281.3112182617188 182.7736053466797 229.8698425292969 211.2340393066406 C 192.9557800292969 231.6570434570313 161.0757141113281 249.294921875 143.9380950927734 249.294921875 Z" stroke="none"/>
    <path d="M 496.4457092285156 -196.6886138916016 C 478.0911560058594 -196.6886138916016 456.4697875976563 -194.7459869384766 433.9190368652344 -191.0707855224609 C 422.0144653320313 -189.1306610107422 409.9786682128906 -186.7254180908203 398.1460876464844 -183.9218597412109 C 385.6512756347656 -180.9614105224609 373.3435363769531 -177.5460968017578 361.5646667480469 -173.7708587646484 C 335.6033325195313 -165.4499816894531 312.3870849609375 -155.4851684570313 292.5609130859375 -144.1531066894531 C 270.3001403808594 -131.4295501708984 252.6380310058594 -117.1322326660156 240.0652160644531 -101.6582336425781 C 224.4972229003906 -82.49810791015625 209.3417663574219 -56.27980041503906 195.019775390625 -23.73155212402344 C 188.58935546875 -9.11773681640625 182.3175659179688 6.81707763671875 176.378662109375 23.63032531738281 C 170.8347778320313 39.32507705688477 165.5374755859375 55.90426254272461 160.6338500976563 72.90726470947266 C 151.6461181640625 104.0721435546875 144.0687255859375 136.322509765625 138.7210083007813 166.1718902587891 C 133.7662963867188 193.8283996582031 131.0375366210938 217.900146484375 131.0375366210938 233.9528961181641 C 131.0375366210938 236.6147613525391 131.3345947265625 238.942138671875 131.9205322265625 240.8703918457031 C 132.4767456054688 242.7007598876953 133.3108520507813 244.2252655029297 134.3997192382813 245.4017028808594 C 135.44970703125 246.5361328125 136.7831420898438 247.3950805664063 138.36279296875 247.9546356201172 C 139.9368286132813 248.5122680664063 141.8125610351563 248.7949523925781 143.9381103515625 248.7949523925781 C 160.9466552734375 248.7949523925781 192.7743530273438 231.1860198974609 229.6277770996094 210.7965087890625 C 281.1195373535156 182.3082580566406 345.2027282714844 146.8536987304688 393.7252197265625 146.8536987304688 C 397.7025146484375 146.8536987304688 401.7599792480469 146.3228302001953 405.7848510742188 145.2758941650391 C 409.7115783691406 144.2544555664063 413.7115783691406 142.7148284912109 417.6737060546875 140.69970703125 C 425.31396484375 136.8139495849609 433.0829162597656 131.0296936035156 440.7647094726563 123.5076446533203 C 448.048828125 116.3748931884766 455.3802795410156 107.5581359863281 462.555419921875 97.30213928222656 C 469.3471069335938 87.59420013427734 476.0955810546875 76.46026611328125 482.6134033203125 64.20951843261719 C 488.7916564941406 52.59701538085938 494.8248901367188 39.86663818359375 500.5455932617188 26.37195205688477 C 505.9957885742188 13.51538848876953 511.1875305175781 -0.0916748046875 515.976806640625 -14.07123565673828 C 525.103271484375 -40.71148681640625 532.67236328125 -68.42874145507813 537.8656005859375 -94.22666931152344 C 543.1266479492188 -120.3614807128906 545.7130737304688 -143.258544921875 545.3453369140625 -160.4425506591797 C 545.1572265625 -169.2328033447266 544.1943969726563 -176.3658599853516 542.483642578125 -181.6436004638672 C 540.759521484375 -186.9625396728516 538.3010864257813 -190.3242340087891 535.1766357421875 -191.6352996826172 C 531.2647094726563 -193.2768096923828 525.9400634765625 -194.5439910888672 519.3504638671875 -195.4015960693359 C 512.7887573242188 -196.2555999755859 505.0824584960938 -196.6886138916016 496.4457092285156 -196.6886138916016 M 496.4457092285156 -197.6886138916016 C 513.7843017578125 -197.6886138916016 527.4912719726563 -195.9446563720703 535.5635986328125 -192.5574188232422 C 576.790771484375 -175.2579193115234 493.8306579589844 147.8536987304688 393.7252197265625 147.8536987304688 C 311.1982727050781 147.8536987304688 185.5277099609375 249.7949523925781 143.9381103515625 249.7949523925781 C 135.0794677734375 249.7949523925781 130.0375366210938 245.1717071533203 130.0375366210938 233.9528961181641 C 130.0375366210938 170.0636291503906 172.6483154296875 -20.27123260498047 239.2890930175781 -102.2888641357422 C 292.8814392089844 -168.2473297119141 425.232177734375 -197.6886138916016 496.4457092285156 -197.6886138916016 Z" stroke="none" fill="#707070"/>
  </g>
</svg>
