<svg xmlns="http://www.w3.org/2000/svg" width="445.326" height="418.738" viewBox="0 0 445.326 418.738">
  <g id="Path_3" data-name="Path 3" transform="translate(188.255 -103.538) rotate(72)" fill="rgba(255,255,255,0.49)" opacity="0.34">
    <path d="M 205.0541839599609 245.2536010742188 C 195.1584167480469 245.2536010742188 187.1456909179688 244.6697082519531 180.5581359863281 243.4684906005859 C 173.1349639892578 242.1149291992188 167.2493591308594 239.9509887695313 162.5649108886719 236.8529357910156 C 157.5591278076172 233.5423736572266 153.9313049316406 229.1802062988281 151.4740753173828 223.5172119140625 C 150.2102508544922 220.6045379638672 149.2489166259766 217.2898712158203 148.6166839599609 213.6652679443359 C 147.9729156494141 209.9742736816406 147.6465301513672 205.8251037597656 147.6465301513672 201.3329925537109 C 147.6465301513672 184.4760437011719 149.4297943115234 162.1758728027344 152.6678009033203 138.5403747558594 C 154.4511260986328 125.5235443115234 156.6558074951172 112.1897659301758 159.2206878662109 98.90937805175781 C 161.9910736083984 84.56454467773438 165.1844635009766 70.27704620361328 168.7120208740234 56.44376754760742 C 176.69140625 25.15315628051758 186.28857421875 -3.605510711669922 197.2370300292969 -29.03345489501953 C 209.8222961425781 -58.26301193237305 224.1012420654297 -82.80356597900391 239.6771392822266 -101.9735641479492 C 243.89697265625 -107.1670684814453 248.6515808105469 -111.0920639038086 253.8089141845703 -113.6393966674805 C 258.7460327148438 -116.0779571533203 264.1745910644531 -117.3143997192383 269.9437561035156 -117.3143997192383 C 274.5433654785156 -117.3143997192383 279.4650268554688 -116.5293960571289 284.5719604492188 -114.9811782836914 C 289.5070190429688 -113.4850692749023 294.7341918945313 -111.2403411865234 300.1083068847656 -108.3094024658203 C 310.3163146972656 -102.7420654296875 321.3301391601563 -94.56501007080078 332.8438415527344 -84.00534057617188 C 353.6116333007813 -64.95834350585938 376.0501403808594 -38.1088981628418 397.7335815429688 -6.359622001647949 C 417.2581787109375 22.22859954833984 435.2507019042969 53.50532150268555 448.3966369628906 81.70904541015625 C 461.556396484375 109.9423751831055 468.8038024902344 132.83154296875 468.8038024902344 146.1600952148438 C 468.8038024902344 177.3429412841797 454.96435546875 201.2821502685547 427.6698608398438 217.3127593994141 C 421.0103149414063 221.2241058349609 413.4598693847656 224.7013244628906 405.2281188964844 227.6479339599609 C 397.0362548828125 230.580322265625 387.9624633789063 233.0613708496094 378.2587890625 235.022216796875 C 368.591796875 236.9756622314453 358.0555725097656 238.462158203125 346.94287109375 239.4403839111328 C 335.8589782714844 240.4161071777344 323.9219055175781 240.9108276367188 311.4632568359375 240.9108276367188 C 287.71484375 240.9108276367188 265.9053649902344 242.2549896240234 246.6632385253906 243.4409332275391 C 230.8811950683594 244.4136047363281 217.2514038085938 245.2536010742188 205.0541839599609 245.2536010742188 Z" stroke="none"/>
    <path d="M 269.9437561035156 -116.8143920898438 C 264.2521057128906 -116.8143920898438 258.8980407714844 -115.5953369140625 254.0303955078125 -113.1910705566406 C 248.9379272460938 -110.67578125 244.2393798828125 -106.7955627441406 240.0652160644531 -101.6582336425781 C 224.518310546875 -82.52401733398438 210.2633361816406 -58.02294921875 197.6962585449219 -28.83573150634766 C 186.7581176757813 -3.431732177734375 177.16943359375 25.3019905090332 169.196533203125 56.56732177734375 C 165.67138671875 70.39115905761719 162.4801635742188 84.66899108886719 159.7116088867188 99.00415802001953 C 157.1484985351563 112.2756576538086 154.9452819824219 125.6003799438477 153.1632080078125 138.6082763671875 C 149.9281616210938 162.221923828125 148.1465454101563 184.4979858398438 148.1465454101563 201.3329925537109 C 148.1465454101563 205.79638671875 148.4704284667969 209.9165954589844 149.1092834472656 213.5793151855469 C 149.7347106933594 217.1651000976563 150.6846618652344 220.4417114257813 151.9327697753906 223.3181610107422 C 154.3502197265625 228.8895416259766 157.918212890625 233.1803741455078 162.8407287597656 236.4358825683594 C 167.4676513671875 239.4959411621094 173.2923889160156 241.6353759765625 180.6477661132813 242.9765930175781 C 187.2053833007813 244.1723175048828 195.188720703125 244.7536010742188 205.0540466308594 244.7536010742188 C 217.2358703613281 244.7536010742188 230.8586120605469 243.9139862060547 246.6323852539063 242.9418182373047 C 265.8817138671875 241.7554321289063 287.6994323730469 240.4107666015625 311.4632568359375 240.4107666015625 C 323.9073791503906 240.4107666015625 335.8296508789063 239.9167175292969 346.8989868164063 238.9422607421875 C 357.9933166503906 237.9656524658203 368.5109252929688 236.4818725585938 378.1597900390625 234.5321044921875 C 387.8398742675781 232.5759887695313 396.8903198242188 230.1014404296875 405.0596008300781 227.1771545410156 C 413.2619323730469 224.2410430908203 420.783935546875 220.7771606445313 427.4166259765625 216.8816070556641 C 434.08154296875 212.9671630859375 440.0186767578125 208.5168762207031 445.0630493164063 203.6543884277344 C 450.1394958496094 198.7609252929688 454.4434204101563 193.3228759765625 457.8553771972656 187.4912719726563 C 461.2982177734375 181.60693359375 463.9234924316406 175.1667175292969 465.6583251953125 168.3494873046875 C 467.4136962890625 161.4515380859375 468.3037719726563 153.9859313964844 468.3037719726563 146.1600952148438 C 468.3037719726563 132.9029846191406 461.072998046875 110.0888214111328 447.9434204101563 81.92026519775391 C 434.80859375 53.7404899597168 416.8304443359375 22.48887634277344 397.3207092285156 -6.077621459960938 C 375.6585693359375 -37.79579162597656 353.2459411621094 -64.61534118652344 332.5059509277344 -83.6368408203125 C 321.0220336914063 -94.16912841796875 310.0413818359375 -102.322509765625 299.8689270019531 -107.8704071044922 C 294.5247802734375 -110.7850036621094 289.3293762207031 -113.0164489746094 284.4269409179688 -114.5026702880859 C 279.3670349121094 -116.03662109375 274.4942016601563 -116.8143920898438 269.9437561035156 -116.8143920898438 M 269.9437561035156 -117.8144226074219 C 346.0043640136719 -117.8144226074219 469.3037719726563 90.65487670898438 469.3037719726563 146.1600952148438 C 469.3037719726563 210.04931640625 411.5687255859375 241.4107666015625 311.4632568359375 241.4107666015625 C 268.7119750976563 241.4107666015625 232.5068359375 245.7535858154297 205.0540771484375 245.7535858154297 C 168.2240905761719 245.7535858154297 147.1465454101563 237.9374542236328 147.1465454101563 201.3329925537109 C 147.1465454101563 137.4437103271484 172.6483764648438 -20.27123260498047 239.2890930175781 -102.2888488769531 C 248.0340576171875 -113.0516510009766 258.4550476074219 -117.8144226074219 269.9437561035156 -117.8144226074219 Z" stroke="none" fill="#707070"/>
  </g>
</svg>
