<?xml version="1.0" standalone="no"?><svg xmlns="http://www.w3.org/2000/svg" viewBox="0 0 1440 320"><path fill="#0099ff" fill-opacity="1" d="M0,128L21.8,112C43.6,96,87,64,131,90.7C174.5,117,218,203,262,208C305.5,213,349,139,393,101.3C436.4,64,480,64,524,58.7C567.3,53,611,43,655,80C698.2,117,742,203,785,218.7C829.1,235,873,181,916,181.3C960,181,1004,235,1047,256C1090.9,277,1135,267,1178,218.7C1221.8,171,1265,85,1309,58.7C1352.7,32,1396,64,1418,80L1440,96L1440,0L1418.2,0C1396.4,0,1353,0,1309,0C1265.5,0,1222,0,1178,0C1134.5,0,1091,0,1047,0C1003.6,0,960,0,916,0C872.7,0,829,0,785,0C741.8,0,698,0,655,0C610.9,0,567,0,524,0C480,0,436,0,393,0C349.1,0,305,0,262,0C218.2,0,175,0,131,0C87.3,0,44,0,22,0L0,0Z"></path></svg>